<svg width="120" height="72" viewBox="0 0 120 72" fill="none" xmlns="http://www.w3.org/2000/svg">
<path d="M35.2912 26.8614C33.5637 26.8614 31.8749 27.3796 30.4385 28.3503C29.0021 29.3211 27.8826 30.7009 27.2215 32.3153C26.5604 33.9296 26.3874 35.706 26.7245 37.4198C27.0615 39.1336 27.8934 40.7078 29.1149 41.9434C30.3365 43.1789 31.8928 44.0204 33.5872 44.3612C35.2815 44.7021 37.0378 44.5272 38.6338 43.8585C40.2298 43.1898 41.594 42.0574 42.5537 40.6046C43.5135 39.1517 44.0258 37.4436 44.0258 35.6962C44.0259 34.536 43.8 33.3871 43.3611 32.3152C42.9222 31.2432 42.2788 30.2692 41.4677 29.4488C40.6566 28.6284 39.6937 27.9777 38.6339 27.5337C37.5741 27.0898 36.4383 26.8613 35.2912 26.8614ZM35.2912 41.6218C34.1325 41.6218 32.9999 41.2742 32.0365 40.6231C31.0731 39.972 30.3222 39.0466 29.8788 37.9638C29.4354 36.8811 29.3194 35.6896 29.5454 34.5402C29.7715 33.3907 30.3294 32.3349 31.1487 31.5062C31.968 30.6775 33.0119 30.1131 34.1483 29.8845C35.2847 29.6559 36.4626 29.7732 37.5331 30.2217C38.6036 30.6702 39.5185 31.4297 40.1622 32.4041C40.806 33.3786 41.1496 34.5242 41.1496 35.6962C41.1496 37.2678 40.5323 38.7749 39.4337 39.8862C38.335 40.9975 36.8449 41.6218 35.2912 41.6218ZM84.7088 3.27234e-05C75.4663 -0.0126379 66.5903 3.65473 60 10.2091C53.4097 3.65473 44.5337 -0.0126379 35.2912 3.27234e-05C15.8006 3.27234e-05 0 15.9819 0 35.6962C0 55.4105 15.8006 71.3924 35.2912 71.3924C44.5337 71.405 53.4097 67.7377 60 61.1833C66.5903 67.7377 75.4663 71.405 84.7088 71.3924C104.2 71.3924 120 55.4105 120 35.6962C120 15.9819 104.2 3.27234e-05 84.7088 3.27234e-05ZM84.7088 68.6081C75.8323 68.6081 67.7789 64.9906 61.9022 59.1414C64.455 56.1756 66.506 52.8035 67.9723 49.1615H64.9633C63.6888 52.0242 62.0175 54.6887 60 57.0746C57.9812 54.689 56.309 52.0245 55.0338 49.1615H52.0242C53.4905 52.8035 55.5414 56.1756 58.0943 59.1414C52.2183 64.9906 44.1641 68.6081 35.2877 68.6081C17.3456 68.6081 2.74919 53.8441 2.74919 35.6962C2.74919 17.5483 17.3456 2.78433 35.2877 2.78433C44.1641 2.78433 52.2183 6.40178 58.0943 12.251C55.5414 15.2168 53.4905 18.5889 52.0242 22.2309H55.0331C56.3085 19.3678 57.981 16.7033 60 14.3178C62.0185 16.7035 63.6907 19.368 64.9662 22.2309H67.9758C66.5095 18.5889 64.4586 15.2168 61.9057 12.251C67.7824 6.40178 75.8359 2.78433 84.7123 2.78433C102.654 2.78433 117.251 17.5483 117.251 35.6962C117.251 53.8441 102.651 68.6081 84.7088 68.6081ZM105.783 37.3468C107.594 36.5358 108.861 34.7767 108.911 32.7506C108.962 30.6088 107.76 28.7626 105.862 27.8523C104.673 27.2812 103.407 27.1734 102.113 27.1734H96.429V44.2176H99.385V38.0943H102.973L106.586 44.219H110.056L105.783 37.3468ZM105.931 32.5585C105.931 33.4088 105.582 34.2177 104.912 34.741C104.258 35.2514 103.437 35.4549 102.625 35.4756C101.863 35.4977 99.704 35.4756 99.3871 35.4756V29.807H101.716C102.775 29.807 103.926 29.7649 104.845 30.3875C105.569 30.8801 105.931 31.6911 105.931 32.5585ZM34.3687 23.3139C34.3687 23.6387 34.2735 23.9561 34.0951 24.2262C33.9167 24.4962 33.6632 24.7067 33.3666 24.8309C33.0699 24.9552 32.7435 24.9877 32.4286 24.9244C32.1137 24.861 31.8244 24.7046 31.5974 24.475C31.3704 24.2454 31.2157 23.9528 31.1531 23.6343C31.0905 23.3157 31.1226 22.9856 31.2455 22.6855C31.3684 22.3855 31.5764 22.129 31.8434 21.9486C32.1104 21.7682 32.4242 21.6719 32.7453 21.6719C33.1759 21.6719 33.5888 21.8449 33.8932 22.1528C34.1977 22.4608 34.3687 22.8784 34.3687 23.3139ZM39.4598 23.3139C39.4598 23.6387 39.3646 23.9561 39.1862 24.2262C39.0078 24.4962 38.7543 24.7067 38.4577 24.8309C38.161 24.9552 37.8346 24.9877 37.5197 24.9244C37.2048 24.861 36.9155 24.7046 36.6885 24.475C36.4615 24.2454 36.3069 23.9528 36.2442 23.6343C36.1816 23.3157 36.2137 22.9856 36.3366 22.6855C36.4595 22.3855 36.6675 22.129 36.9345 21.9486C37.2015 21.7682 37.5153 21.6719 37.8364 21.6719C38.0497 21.6718 38.2608 21.7142 38.4579 21.7967C38.6549 21.8792 38.834 22.0001 38.9848 22.1526C39.1356 22.3051 39.2552 22.4861 39.3369 22.6854C39.4185 22.8846 39.4605 23.0982 39.4605 23.3139H39.4598ZM56.8231 37.3468C58.6342 36.5358 59.9012 34.7767 59.9506 32.7506C60.0021 30.6088 58.8001 28.7626 56.9021 27.8523C55.7128 27.2812 54.4473 27.1734 53.1528 27.1734H47.4716V44.2176H50.4297V38.0943H54.0181L57.6306 44.219H61.1004L56.8231 37.3468ZM56.9706 32.5585C56.9706 33.4088 56.6219 34.2177 55.9514 34.741C55.2978 35.2514 54.4769 35.4549 53.6645 35.4756C52.9029 35.4977 50.7438 35.4756 50.4269 35.4756V29.807H52.7561C53.8149 29.807 54.9654 29.7649 55.885 30.3875C56.612 30.8801 56.9734 31.6911 56.9734 32.5585H56.9706ZM76.7083 36.7821C76.3597 36.2172 75.8824 35.745 75.3164 35.4049C75.8332 35.085 76.2664 34.6443 76.5798 34.1199C76.9518 33.488 77.1395 32.7563 77.1395 31.9467C77.1395 30.4581 76.6243 29.2752 75.6079 28.4306C74.6056 27.5975 73.2328 27.1748 71.5261 27.1748H64.5879V44.2204H71.6157C73.3358 44.2204 74.732 43.7921 75.7639 42.9432C76.8106 42.0865 77.3414 40.8315 77.3414 39.2223C77.3414 38.2735 77.1289 37.4525 76.7111 36.7821H76.7083ZM73.7092 40.84C73.2264 41.2598 72.5213 41.4733 71.6129 41.4733H67.4563V36.9042H71.4343C72.5051 36.9042 73.2815 37.1091 73.7431 37.5138C74.2047 37.9186 74.4228 38.4598 74.4228 39.1787C74.4249 39.8791 74.192 40.4231 73.7121 40.84H73.7092ZM73.5984 33.4937C73.1834 33.9 72.5079 34.1063 71.591 34.1063H67.4563V29.8941H71.5233C72.4338 29.8941 73.1227 30.0783 73.5702 30.4417C74.0177 30.8051 74.2202 31.2877 74.2202 31.941C74.2231 32.5778 74.0198 33.0847 73.6012 33.4937H73.5984ZM84.2232 30.0141V34.2534H91.1346V37.0933H84.2232V41.3555H92.5462V44.2183H81.3512V27.1741H92.5491V30.0141H84.2232ZM17.676 35.6962L26.1021 44.2162H22.297L14.7856 36.6778V44.2169H11.8275V27.1727H14.7856V34.7531L22.2984 27.1727H26.1035L17.676 35.6962Z" fill="#262523"/>
</svg>
